<svg width="64" height="64" viewBox="0 0 64 64" fill="none" xmlns="http://www.w3.org/2000/svg">
<path d="M60.4795 3.5205C58.1314 1.17243 55.3061 0 52.0002 0H11.9998C8.69393 0 5.86856 1.17243 3.5205 3.5205C1.17243 5.86856 0 8.69393 0 11.9998V52.0002C0 55.3061 1.17243 58.1314 3.5205 60.4795C5.86856 62.8276 8.69393 64 11.9998 64H21.3344C21.943 64 22.4011 63.9776 22.7086 63.9359C23.0664 63.8642 23.3894 63.6734 23.6248 63.3946C23.9291 63.0742 24.0829 62.6097 24.0829 62.0011L24.0605 59.1661C24.0476 57.3594 24.0412 55.9307 24.0412 54.8736L23.0802 55.0402C22.4716 55.1523 21.7028 55.2004 20.7706 55.1875C19.799 55.1696 18.8305 55.0721 17.8748 54.896C16.8574 54.7082 15.8997 54.2799 15.0814 53.6467C14.2245 52.9985 13.5854 52.1046 13.2491 51.084L12.8327 50.123C12.4817 49.365 12.0407 48.6519 11.5193 47.9992C10.9235 47.2208 10.318 46.6954 9.70619 46.4167L9.41789 46.2085C9.21686 46.0645 9.034 45.8967 8.87332 45.7088C8.71985 45.5344 8.5935 45.3378 8.49852 45.1258C8.41524 44.9304 8.48571 44.7702 8.70674 44.6453C8.93098 44.5171 9.3314 44.4563 9.91761 44.4563L10.7505 44.5844C11.3047 44.6933 11.9934 45.0265 12.8103 45.5807C13.6369 46.1442 14.3275 46.8851 14.8316 47.7493C15.4722 48.8865 16.2411 49.7546 17.1444 50.3537C18.0478 50.9495 18.9575 51.2506 19.8737 51.2506C20.7898 51.2506 21.5811 51.1801 22.2506 51.0424C22.898 50.9085 23.5271 50.6977 24.1245 50.4145C24.3744 48.5566 25.0535 47.1215 26.1651 46.122C24.7248 45.9808 23.2973 45.7302 21.895 45.3724C20.5265 44.9965 19.2104 44.4509 17.9773 43.7483C16.6871 43.0459 15.5475 42.0968 14.6234 40.955C13.736 39.8434 13.0057 38.3859 12.4355 36.5824C11.8685 34.7757 11.5834 32.6903 11.5834 30.3294C11.5834 26.9691 12.6789 24.1085 14.8732 21.7444C13.8481 19.2202 13.9442 16.3852 15.1647 13.2491C15.972 12.996 17.1668 13.185 18.7493 13.8097C20.3317 14.4344 21.4914 14.9693 22.2281 15.4114C22.9649 15.8599 23.5543 16.2346 23.9996 16.539C26.6039 15.8142 29.2952 15.4499 31.9984 15.4562C34.7501 15.4562 37.4153 15.8182 40.0004 16.539L41.5829 15.5395C42.8001 14.8087 44.084 14.1951 45.4173 13.7072C46.8908 13.1498 48.012 12.9992 48.7936 13.2491C50.0429 16.3884 50.1519 19.2202 49.1236 21.7476C51.3179 24.1085 52.4166 26.9691 52.4166 30.3326C52.4166 32.6935 52.1315 34.7853 51.5613 36.6016C50.9943 38.4211 50.2576 39.8787 49.3542 40.9774C48.4138 42.1046 47.2694 43.0446 45.9811 43.7483C44.6357 44.4979 43.3287 45.0393 42.0634 45.3724C40.6612 45.7314 39.2337 45.9831 37.7933 46.1252C39.2348 47.3745 39.9588 49.3446 39.9588 52.0386V62.0011C39.9588 62.472 40.026 62.8532 40.167 63.1447C40.2318 63.2851 40.3241 63.4111 40.4386 63.5151C40.5531 63.6191 40.6873 63.6991 40.8333 63.7501C41.1408 63.859 41.4099 63.9295 41.6469 63.9552C41.884 63.9872 42.2235 63.9968 42.6656 63.9968H52.0002C55.3061 63.9968 58.1314 62.8244 60.4795 60.4763C62.8244 58.1314 64 55.3029 64 51.997V11.9998C64 8.69393 62.8276 5.86856 60.4795 3.5205Z" fill="#C0D700"/>
</svg>
