<svg width="64" height="64" viewBox="0 0 64 64" fill="none" xmlns="http://www.w3.org/2000/svg">
<path d="M64 14.5519V51.6426C64 54.0532 62.048 56.0053 59.6373 56.0053H49.4533V31.2799L32 44.3732L14.5467 31.2799V56.0079H4.36267C3.78953 56.0079 3.22201 55.895 2.69253 55.6756C2.16305 55.4562 1.682 55.1346 1.27685 54.7292C0.871707 54.3238 0.550411 53.8425 0.331323 53.3129C0.112236 52.7833 -0.000349514 52.2157 8.15071e-07 51.6426V14.5519C8.15071e-07 9.15725 6.15733 6.07725 10.472 9.31458L14.5467 12.3732L32 25.4612L49.4533 12.3679L53.528 9.31458C57.84 6.07991 64 9.15725 64 14.5519Z" fill="#C0D700"/>
</svg>
