<svg width="64" height="64" viewBox="0 0 64 64" fill="none" xmlns="http://www.w3.org/2000/svg">
<path d="M58.8813 0H5.46856C2.55 0 0 2.1 0 4.98428V58.5156C0 61.4156 2.55 63.9999 5.46856 63.9999H58.8656C61.7999 63.9999 63.9999 61.3985 63.9999 58.5156V4.98428C64.017 2.1 61.7999 0 58.8813 0ZM19.8385 53.3471H10.67V24.84H19.8385V53.3471ZM15.5714 20.5057H15.5057C12.5714 20.5057 10.6714 18.3214 10.6714 15.5871C10.6714 12.8028 12.6214 10.67 15.6214 10.67C18.6214 10.67 20.4571 12.7871 20.5228 15.5871C20.5214 18.3214 18.6214 20.5057 15.5714 20.5057ZM53.3471 53.3471H44.1785V37.7599C44.1785 34.0257 42.8442 31.4742 39.5271 31.4742C36.9928 31.4742 35.4928 33.1885 34.8257 34.8585C34.5757 35.4585 34.5085 36.2757 34.5085 37.1099V53.3471H25.34V24.84H34.5085V28.8071C35.8428 26.9071 37.9271 24.1728 42.7771 24.1728C48.7956 24.1728 53.3485 28.14 53.3485 36.6928L53.3471 53.3471Z" fill="#C0D700"/>
</svg>
