<svg width="68" height="42" viewBox="0 0 68 42" fill="none" xmlns="http://www.w3.org/2000/svg">
<path d="M30.16 -2.86102e-06H37.96V42H30.16V-2.86102e-06ZM8.44 42H0.64V-2.86102e-06H8.44V42ZM30.76 24H7.78V17.34H30.76V24ZM30.6142 42V-2.86102e-06H50.2942C55.3342 -2.86102e-06 59.1742 0.999997 61.8142 3C64.4542 4.96 65.7742 7.6 65.7742 10.92C65.7742 13.16 65.2542 15.08 64.2142 16.68C63.1742 18.24 61.7742 19.46 60.0142 20.34C58.2942 21.18 56.4142 21.6 54.3742 21.6L55.4542 19.44C57.8142 19.44 59.9342 19.88 61.8142 20.76C63.6942 21.6 65.1742 22.84 66.2542 24.48C67.3742 26.12 67.9342 28.16 67.9342 30.6C67.9342 34.2 66.5542 37 63.7942 39C61.0342 41 56.9342 42 51.4942 42H30.6142ZM38.4142 35.88H51.0142C53.9342 35.88 56.1742 35.4 57.7342 34.44C59.2942 33.48 60.0742 31.94 60.0742 29.82C60.0742 27.74 59.2942 26.22 57.7342 25.26C56.1742 24.26 53.9342 23.76 51.0142 23.76H37.8142V17.7H49.4542C52.1742 17.7 54.2542 17.22 55.6942 16.26C57.1742 15.3 57.9142 13.86 57.9142 11.94C57.9142 9.98 57.1742 8.52 55.6942 7.56C54.2542 6.6 52.1742 6.12 49.4542 6.12H38.4142V35.88Z" fill="#C6DA20"/>
</svg>
