<svg width="144" height="144" viewBox="0 0 144 144" fill="none" xmlns="http://www.w3.org/2000/svg">
<path d="M132 72C132 105.137 105.137 132 72 132C38.8629 132 12 105.137 12 72C12 38.8629 38.8629 12 72 12C105.137 12 132 38.8629 132 72Z" fill="#C6DA20"/>
<path d="M69.02 49H78.12V98H69.02V49ZM43.68 98H34.58V49H43.68V98ZM69.72 77H42.91V69.23H69.72V77ZM69.5499 98V49H92.5099C98.3899 49 102.87 50.1667 105.95 52.5C109.03 54.7867 110.57 57.8667 110.57 61.74C110.57 64.3533 109.963 66.5933 108.75 68.46C107.537 70.28 105.903 71.7033 103.85 72.73C101.843 73.71 99.6499 74.2 97.2699 74.2L98.5299 71.68C101.283 71.68 103.757 72.1933 105.95 73.22C108.143 74.2 109.87 75.6467 111.13 77.56C112.437 79.4733 113.09 81.8533 113.09 84.7C113.09 88.9 111.48 92.1667 108.26 94.5C105.04 96.8333 100.257 98 93.9099 98H69.5499ZM78.6499 90.86H93.3499C96.7566 90.86 99.3699 90.3 101.19 89.18C103.01 88.06 103.92 86.2633 103.92 83.79C103.92 81.3633 103.01 79.59 101.19 78.47C99.3699 77.3033 96.7566 76.72 93.3499 76.72H77.9499V69.65H91.5299C94.7033 69.65 97.1299 69.09 98.8099 67.97C100.537 66.85 101.4 65.17 101.4 62.93C101.4 60.6433 100.537 58.94 98.8099 57.82C97.1299 56.7 94.7033 56.14 91.5299 56.14H78.6499V90.86Z" fill="#1A206E"/>
</svg>
