<svg width="60" height="60" viewBox="0 0 60 60" fill="none" xmlns="http://www.w3.org/2000/svg">
<path d="M46.875 21.75L45.1875 21.1875C45.1875 20.8125 45.375 20.4375 45.375 20.0625C46.6875 13.875 45.75 8.81246 42.9375 7.12496C40.125 5.62496 35.625 7.12496 31.125 11.0625C30.75 11.4375 30.1875 11.8125 29.8125 12.1875C29.4375 12 29.25 11.625 28.875 11.4375C24.375 7.31246 19.6875 5.62496 16.875 7.31246C14.0625 8.81246 13.3125 13.6875 14.4375 19.5C14.625 20.0625 14.625 20.625 14.8125 21.1875C14.0625 21.375 13.5 21.5625 12.9375 21.75C7.3125 23.625 3.75 26.8125 3.75 29.8125C3.75 33 7.5 36.375 13.3125 38.25C13.6875 38.4375 14.25 38.625 14.8125 38.625C14.625 39.1875 14.4375 39.9375 14.4375 40.5C13.3125 46.3125 14.25 50.8125 16.875 52.5C19.6875 54.1875 24.375 52.4999 29.0625 48.375C29.4375 48 29.8125 47.625 30.1875 47.4375C30.5625 47.8125 31.125 48.375 31.6875 48.75C36.1875 52.6875 40.5 54.1875 43.3125 52.5C46.125 50.8125 47.0625 45.9375 45.9375 39.9375C45.9375 39.5625 45.75 39 45.5625 38.4375C45.9375 38.25 46.3125 38.25 46.5 38.0625C52.5 36 56.4375 32.8125 56.4375 29.625C56.25 26.8125 52.5 23.8125 46.875 21.75ZM32.8125 12.9375C36.75 9.56246 40.3125 8.24996 42 9.18746C43.6875 10.125 44.4375 14.25 43.3125 19.6875C43.3125 20.0625 43.125 20.4375 43.125 20.8125C40.875 20.25 38.4375 19.875 36.1875 19.6875C34.875 17.8125 33.375 15.9375 31.6875 14.0625L32.8125 12.9375ZM19.3125 32.625C19.875 33.5625 20.25 34.5 20.8125 35.4375C21.375 36.375 21.9375 37.3125 22.5 38.0625C20.8125 37.875 19.3125 37.6875 17.625 37.3125C18 35.8125 18.5625 34.3125 19.3125 32.625ZM19.3125 27.375C18.5625 25.875 18.1875 24.375 17.625 22.875C19.125 22.5 20.8125 22.3125 22.3125 22.125C21.75 23.0625 21.1875 23.8125 20.625 24.75C20.25 25.5 19.6875 26.4375 19.3125 27.375ZM20.4375 30C21.1875 28.5 21.9375 27.1875 22.6875 25.6875C23.4375 24.375 24.375 22.875 25.3125 21.5625C26.8125 21.375 28.5 21.375 30.1875 21.375C31.875 21.375 33.375 21.375 35.0625 21.5625C36 22.875 36.75 24.1875 37.5 25.6875C38.25 27 39 28.5 39.75 30C39 31.5 38.25 32.8125 37.5 34.3125C36.75 35.625 35.8125 37.125 35.0625 38.4375C33.5625 38.625 31.875 38.625 30.1875 38.625C28.5 38.625 27 38.625 25.5 38.4375C24.5625 37.125 23.8125 35.8125 22.875 34.3125C21.9375 32.8125 21.1875 31.5 20.4375 30ZM39.1875 35.4375C39.75 34.5 40.3125 33.5625 40.6875 32.625C41.4375 34.125 42 35.625 42.375 37.3125C40.6875 37.6875 39.1875 37.875 37.5 38.0625C38.25 37.125 38.8125 36.1875 39.1875 35.4375ZM40.6875 27.375C40.125 26.4375 39.75 25.5 39.1875 24.5625C38.625 23.625 38.0625 22.875 37.6875 21.9375C39.375 22.125 40.875 22.5 42.5625 22.6875C42 24.375 41.4375 25.875 40.6875 27.375ZM30 15.5625C31.125 16.6875 32.0625 18 33 19.3125C30.9375 19.125 28.875 19.125 26.8125 19.3125C27.9375 18 29.0625 16.6875 30 15.5625ZM18 9.18746C19.6875 8.24996 23.625 9.56246 27.75 13.3125L28.5 14.0625C26.8125 15.75 25.3125 17.625 24 19.6875C21.5625 19.875 19.3125 20.25 17.0625 20.8125C16.875 20.25 16.875 19.6875 16.6875 19.125C15.5625 14.0625 16.3125 10.125 18 9.18746ZM15.375 36.75C15 36.5625 14.4375 36.5625 14.0625 36.375C11.4375 35.4375 9.375 34.3125 7.875 33.1875C6.5625 32.0625 6 30.9375 6 30C6 28.125 8.8125 25.6875 13.6875 24C14.25 23.8125 14.8125 23.625 15.5625 23.4375C16.125 25.6875 16.875 27.9375 18 30C16.875 32.25 16.125 34.5 15.375 36.75ZM27.5625 47.0625C25.5 48.9375 23.4375 50.0625 21.75 50.8125C20.0625 51.375 18.9375 51.375 18 51C16.3125 50.0625 15.5625 46.3125 16.5 41.4375C16.6875 40.6875 16.875 40.125 16.875 39.375C19.125 39.9375 21.5625 40.3125 24 40.3125C25.3125 42.1875 26.8125 44.0625 28.5 45.9375C28.125 46.3125 27.9375 46.6875 27.5625 47.0625ZM30 44.4375C28.875 43.3125 27.9375 42 26.8125 40.6875H33C32.25 42 31.125 43.3125 30 44.4375ZM43.6875 47.625C43.3125 49.3125 42.75 50.4375 42 50.8125C40.3125 51.75 36.75 50.4375 33 47.25C32.625 46.875 32.0625 46.5 31.6875 46.125C33.1875 44.4375 34.6875 42.5625 36 40.5C38.4375 40.3125 40.6875 39.9375 43.125 39.375C43.3125 39.75 43.3125 40.3125 43.5 40.6875C44.0625 43.3125 44.0625 45.75 43.6875 47.625ZM45.5625 36.375C45.1875 36.375 45 36.5625 44.625 36.5625C43.875 34.3125 42.9375 32.0625 42 29.8125C42.9375 27.75 43.875 25.5 44.625 23.25C45.1875 23.4375 45.75 23.625 46.125 23.8125C51 25.5 54 27.9375 54 29.8125C54 32.0625 50.8125 34.6875 45.5625 36.375Z" fill="#C0D700"/>
<path d="M30 34.6875C30.9375 34.6875 31.875 34.5 32.625 33.9375C33.375 33.375 33.9375 32.625 34.3125 31.875C34.6875 30.9375 34.6875 30 34.5 29.0625C34.3125 28.125 33.9375 27.375 33.1875 26.625C32.625 25.875 31.6875 25.5 30.75 25.3125C29.8125 25.125 28.875 25.3125 27.9375 25.5C27 25.875 26.25 26.4375 25.875 27.1875C25.3125 27.9375 25.125 28.875 25.125 29.8125C25.125 30.375 25.3125 31.125 25.5 31.6875C25.6875 32.25 26.0625 32.8125 26.4375 33.1875C26.8125 33.5625 27.375 33.9375 27.9375 34.125C28.6875 34.5 29.4375 34.6875 30 34.6875Z" fill="#C0D700"/>
</svg>
