<svg width="60" height="60" viewBox="0 0 60 60" fill="none" xmlns="http://www.w3.org/2000/svg">
<g clip-path="url(#clip0_431_66)">
<path d="M28.2975 41.5237C28.2694 41.58 28.2413 41.625 28.2975 41.5237ZM51.6525 33.3675C49.7663 33.3675 47.9063 33.7987 46.215 34.6331C45.6619 33.5175 45.09 32.5425 44.9963 31.8112C44.8838 30.9581 44.7619 30.4518 44.8932 29.4393C45.0244 28.4268 45.615 26.9925 45.6057 26.8893C45.5963 26.7862 45.4744 26.2706 44.265 26.2612C43.0557 26.2518 42.015 26.4956 41.8932 26.8143C41.6792 27.3967 41.513 27.9956 41.3963 28.605C41.1807 29.7018 38.9794 33.6206 37.7325 35.6643C37.32 34.8675 36.9732 34.1643 36.8982 33.6018C36.7857 32.7487 36.6638 32.2425 36.795 31.23C36.9263 30.2175 37.5169 28.7831 37.5075 28.68C37.4982 28.5768 37.3763 28.0612 36.1688 28.0518C34.9613 28.0425 33.9188 28.2862 33.7969 28.605C33.675 28.9237 33.5438 29.6737 33.3 30.3956C33.0563 31.1175 30.1219 37.6425 29.355 39.3393C28.9613 40.2018 28.6238 40.8956 28.38 41.3643C28.3425 41.4393 28.3144 41.4862 28.2957 41.5237C28.3238 41.4768 28.3425 41.43 28.3425 41.4487C28.1363 41.8518 28.0144 42.0768 28.0144 42.0768V42.0862C27.855 42.3862 27.6769 42.6581 27.5925 42.6581C27.5363 42.6581 27.4144 41.8706 27.6207 40.7925C28.0613 38.5237 29.1019 34.9987 29.0925 34.8768C29.0832 34.8112 29.2894 34.2018 28.4082 33.8737C27.555 33.5643 27.2457 34.08 27.1707 34.08C27.0957 34.08 27.0394 34.2675 27.0394 34.2675C27.0394 34.2675 27.9863 30.2925 25.2207 30.2925C23.4957 30.2925 21.0957 32.1862 19.9163 33.9018C19.1757 34.305 17.5725 35.1768 15.885 36.105L13.9444 37.1737C13.8975 37.1268 13.86 37.08 13.8132 37.0331C10.4569 33.4518 4.26191 30.9206 4.52441 26.1112C4.61816 24.3581 5.22753 19.755 16.4382 14.1675C25.6257 9.59247 32.97 10.8487 34.2357 13.6425C36.0544 17.6268 30.3075 25.0425 20.7675 26.1112C17.13 26.5143 15.2194 25.1081 14.7413 24.5831C14.2444 24.03 14.1694 24.0018 13.9819 24.105C13.6725 24.2737 13.8694 24.7612 13.9819 25.0518C14.2632 25.7925 15.435 27.105 17.4319 27.7612C19.185 28.3331 23.4488 28.6518 28.6032 26.655C34.395 24.4237 38.9044 18.2081 37.5807 13.005C36.2344 7.71747 27.4669 5.98309 19.1775 8.92684C14.2369 10.68 8.89503 13.4362 5.05316 17.0268C0.487531 21.3018 -0.241844 25.0237 0.0581563 26.58C1.12691 32.1018 8.73753 35.7018 11.7825 38.3643L11.3607 38.5987C9.83253 39.3581 4.03128 42.3956 2.57816 45.6018C0.937531 49.2393 2.85003 51.8456 4.10441 52.2018C8.02316 53.2893 12.0338 51.33 14.19 48.1143C16.3463 44.8987 16.0838 40.6987 15.09 38.7862C15.0807 38.7581 15.0619 38.7393 15.0525 38.7112C16.1775 38.0449 17.312 37.3948 18.4557 36.7612C18.0807 37.7737 17.8088 38.9925 17.6682 40.755C17.4994 42.8175 18.3525 45.4893 19.4588 46.5393C19.9463 46.9987 20.535 47.0081 20.9025 47.0081C22.1963 47.0081 22.7775 45.9393 23.4244 44.6643C24.2213 43.1081 24.9244 41.2987 24.9244 41.2987C24.9244 41.2987 24.0432 46.1925 26.4525 46.1925C27.3338 46.1925 28.215 45.0581 28.6088 44.4768V44.4862C28.6088 44.4862 28.6275 44.4487 28.6744 44.3737C28.7682 44.2331 28.815 44.1487 28.815 44.1487V44.1206C29.1713 43.5112 29.9494 42.1143 31.1213 39.8081C32.64 36.8268 34.0913 33.105 34.0913 33.105C34.2319 33.9225 34.4269 34.7306 34.6725 35.5237C34.935 36.4143 35.4882 37.3893 35.9288 38.3362C35.5725 38.8237 35.3569 39.105 35.3569 39.105C35.3569 39.1125 35.3607 39.1181 35.3663 39.1237C35.085 39.4987 34.7663 39.9018 34.4382 40.2956C33.24 41.7206 31.8132 43.3518 31.6257 43.8206C31.4007 44.3737 31.4569 44.7862 31.8882 45.105C32.2069 45.3487 32.7694 45.3862 33.36 45.3393C34.4382 45.2643 35.1975 45.0018 35.5632 44.8331C36.2375 44.5915 36.8749 44.257 37.4569 43.8393C38.6288 42.9768 39.3413 41.7393 39.2757 40.1081C39.2382 39.2081 38.9475 38.3081 38.5913 37.4643C38.6944 37.3143 38.8069 37.155 38.91 36.9956C40.13 35.1752 41.2293 33.2768 42.2007 31.3125C42.3413 32.13 42.5344 32.9381 42.7819 33.7312C43.0069 34.4906 43.4475 35.325 43.8507 36.1406C42.1069 37.5562 41.0288 39.1968 40.6557 40.275C39.9619 42.2718 40.5057 43.1718 41.5275 43.3781C41.9869 43.4718 42.6432 43.2562 43.1307 43.05C43.8544 42.8081 44.5369 42.4575 45.1538 42.0093C46.3257 41.1468 47.46 39.9375 47.3832 38.2968C47.355 37.5562 47.1488 36.8156 46.8769 36.1031C48.3488 35.4843 50.2613 35.1468 52.6988 35.4281C57.9188 36.0375 58.9407 39.3 58.7438 40.6593C58.5469 42.0187 57.45 42.7781 57.0844 43.0031C56.7188 43.2281 56.6063 43.3125 56.6344 43.4812C56.6813 43.725 56.85 43.7156 57.1594 43.6593C57.5907 43.5843 59.8969 42.5531 60 40.0312C60.15 36.8437 57.0844 33.3375 51.6563 33.3656L51.6525 33.3675ZM11.4169 46.9331C9.69191 48.8175 7.27503 49.53 6.23441 48.93C5.11878 48.2812 5.55941 45.5081 7.68566 43.5C8.97941 42.2812 10.6482 41.1562 11.7544 40.4625C12.0075 40.3125 12.3732 40.0875 12.8232 39.8156C12.8597 39.7922 12.8973 39.7703 12.9357 39.75C13.02 39.6937 13.1138 39.6468 13.2075 39.5906C13.9838 42.4406 13.2357 44.955 11.4169 46.9331ZM24.0132 38.3643C23.4132 39.8362 22.1494 43.5862 21.3788 43.3893C20.7225 43.2206 20.3194 40.3612 21.2475 37.5487C21.7163 36.1331 22.71 34.4456 23.3007 33.7893C24.2475 32.73 25.2882 32.3925 25.5319 32.8143C25.86 33.3675 24.3882 37.4456 24.0132 38.3643ZM34.4194 43.3331C34.1663 43.4643 33.9319 43.5487 33.8194 43.4831C33.735 43.4362 33.9225 43.2581 33.9225 43.2581C33.9225 43.2581 35.2257 41.8612 35.7413 41.2237C36.0413 40.8487 36.3882 40.4081 36.7632 39.9206C36.7632 39.9675 36.7725 40.0143 36.7725 40.0706C36.7613 41.7487 35.1507 42.8831 34.4194 43.3331ZM42.4444 41.505C42.2569 41.3737 42.285 40.9331 42.9132 39.5643C43.1569 39.03 43.7194 38.13 44.6944 37.2675C44.805 37.5937 44.865 37.935 44.8725 38.28C44.8632 40.3893 43.3538 41.1768 42.4444 41.505Z" fill="#C0D700"/>
</g>
<defs>
<clipPath id="clip0_431_66">
<rect width="60" height="60" fill="white"/>
</clipPath>
</defs>
</svg>
