<svg width="60" height="60" viewBox="0 0 60 60" fill="none" xmlns="http://www.w3.org/2000/svg">
<g clip-path="url(#clip0_431_58)">
<path d="M41.775 0.607485L41.475 7.38249C41.4714 7.46818 41.4923 7.55313 41.5353 7.62734C41.5783 7.70154 41.6417 7.7619 41.7179 7.8013C41.7941 7.84071 41.8799 7.85752 41.9653 7.84976C42.0508 7.84199 42.1322 7.80998 42.2 7.75749L44.85 5.75749L47.1 7.50749C47.1661 7.55178 47.2427 7.57778 47.3221 7.58283C47.4015 7.58788 47.4808 7.5718 47.5519 7.53623C47.623 7.50066 47.6835 7.44687 47.7271 7.38034C47.7706 7.31381 47.7958 7.23691 47.8 7.15749L47.55 0.257485L50.875 0.00748536C51.2853 -0.0195831 51.6967 0.0379675 52.0838 0.176564C52.4709 0.315161 52.8254 0.531845 53.1252 0.813165C53.425 1.09449 53.6639 1.43444 53.8268 1.81191C53.9898 2.18939 54.0734 2.59634 54.0725 3.00749V56.9975C54.073 57.4044 53.9908 57.8072 53.8307 58.1813C53.6706 58.5554 53.4361 58.893 53.1415 59.1736C52.8468 59.4543 52.4982 59.672 52.1167 59.8137C51.7352 59.9553 51.3289 60.0178 50.9225 59.9975L10.6825 58.1975C9.92572 58.1663 9.20872 57.85 8.67545 57.3121C8.14218 56.7742 7.83212 56.0545 7.80752 55.2975L5.93252 5.80499C5.90885 5.41087 5.96322 5.01596 6.0925 4.6429C6.22177 4.26984 6.42342 3.92597 6.68587 3.631C6.94832 3.33603 7.26642 3.09577 7.62192 2.924C7.97741 2.75222 8.36332 2.65231 8.75752 2.62999L41.75 0.554985L41.775 0.607485ZM34.1 23.25C34.1 24.425 42 23.85 43.075 23.05C43.075 15.05 38.775 10.825 30.9275 10.825C23.0525 10.825 18.68 15.125 18.68 21.55C18.68 32.675 33.6775 32.875 33.6775 38.9475C33.6775 40.6975 32.8775 41.6975 31.0525 41.6975C28.6525 41.6975 27.6775 40.4725 27.8025 36.2975C27.8025 35.3975 18.68 35.0975 18.38 36.2975C17.705 46.3725 23.955 49.2975 31.1275 49.2975C38.1025 49.2975 43.55 45.5725 43.55 38.8475C43.55 26.9225 28.3025 27.2475 28.3025 21.35C28.3025 18.925 30.1025 18.6 31.1275 18.6C32.2525 18.6 34.2525 18.775 34.1025 23.275L34.1 23.25Z" fill="#C0D700"/>
</g>
<defs>
<clipPath id="clip0_431_58">
<rect width="60" height="60" fill="white"/>
</clipPath>
</defs>
</svg>
