<svg width="60" height="60" viewBox="0 0 60 60" fill="none" xmlns="http://www.w3.org/2000/svg">
<path d="M30 5C16.225 5 5 16.225 5 30C5 43.775 16.225 55 30 55C43.775 55 55 43.775 55 30C55 16.225 43.775 5 30 5ZM7.525 30C7.525 26.75 8.225 23.65 9.475 20.85L20.2 50.225C12.7 46.575 7.525 38.9 7.525 30ZM30 52.475C27.8 52.475 25.675 52.15 23.65 51.55L30.4 31.95L37.3 50.875C37.35 50.975 37.4 51.1 37.45 51.175C35.125 52.025 32.625 52.475 30 52.475ZM33.1 19.45C34.45 19.375 35.675 19.225 35.675 19.225C36.875 19.075 36.75 17.3 35.525 17.375C35.525 17.375 31.875 17.65 29.525 17.65C27.325 17.65 23.6 17.375 23.6 17.375C22.4 17.325 22.25 19.175 23.475 19.25C23.475 19.25 24.625 19.4 25.825 19.475L29.325 29.075L24.4 43.825L16.225 19.45C17.575 19.4 18.8 19.25 18.8 19.25C20 19.1 19.875 17.325 18.65 17.4C18.65 17.4 15 17.675 12.65 17.675C12.225 17.675 11.725 17.675 11.2 17.65C15.25 11.55 22.15 7.525 30 7.525C35.85 7.525 41.175 9.75 45.175 13.425C45.075 13.425 44.975 13.4 44.875 13.4C42.675 13.4 41.1 15.325 41.1 17.4C41.1 19.25 42.175 20.825 43.3 22.675C44.15 24.175 45.15 26.1 45.15 28.875C45.15 30.8 44.4 33.025 43.45 36.15L41.2 43.65L33.1 19.45ZM49.725 19.225C52.533 24.3641 53.2238 30.3964 51.6501 36.0372C50.0765 41.6781 46.3628 46.4817 41.3 49.425L48.175 29.575C49.45 26.375 49.875 23.8 49.875 21.525C49.875 20.7 49.825 19.925 49.725 19.225Z" fill="#C0D700"/>
</svg>
